<?xml version="1.0" encoding="UTF-8"?>
<svg xmlns="http://www.w3.org/2000/svg" version="1.1" viewBox="0 0 619 423">
  <defs>
    <style>
      .cls-1 {
        fill: #fff;
      }

      .cls-2 {
        fill: #e75725;
      }

      .cls-3 {
        fill: #00f602;
      }

      .cls-4 {
        fill: none;
        stroke: #00f602;
        stroke-miterlimit: 10;
        stroke-width: 10px;
      }
    </style>
  </defs>
  <!-- Generator: Adobe Illustrator 28.7.2, SVG Export Plug-In . SVG Version: 1.2.0 Build 154)  -->
  <g>
    <g id="Layer_1">
      <g>
       
        <path class="cls-3" d="M79.5,83c22.88,0,41.5,18.62,41.5,41.5s-18.62,41.5-41.5,41.5-41.5-18.62-41.5-41.5,18.62-41.5,41.5-41.5M79.5,73h0c-28.44,0-51.5,23.06-51.5,51.5h0c0,28.44,23.06,51.5,51.5,51.5h0c28.44,0,51.5-23.06,51.5-51.5h0c0-28.44-23.06-51.5-51.5-51.5h0Z"/>
      </g>
      <g>
        
        <path class="cls-3" d="M192.5,248c22.88,0,41.5,18.62,41.5,41.5s-18.62,41.5-41.5,41.5-41.5-18.62-41.5-41.5,18.62-41.5,41.5-41.5M192.5,238h0c-28.44,0-51.5,23.06-51.5,51.5h0c0,28.44,23.06,51.5,51.5,51.5h0c28.44,0,51.5-23.06,51.5-51.5h0c0-28.44-23.06-51.5-51.5-51.5h0Z"/>
      </g>
      <g>
       
        <path class="cls-3" d="M387.5,145c22.88,0,41.5,18.62,41.5,41.5s-18.62,41.5-41.5,41.5-41.5-18.62-41.5-41.5,18.62-41.5,41.5-41.5M387.5,135h0c-28.44,0-51.5,23.06-51.5,51.5h0c0,28.44,23.06,51.5,51.5,51.5h0c28.44,0,51.5-23.06,51.5-51.5h0c0-28.44-23.06-51.5-51.5-51.5h0Z"/>
      </g>
      <g>
        <path class="cls-2" d="M265.5,137c-25.64,0-46.5-20.86-46.5-46.5s20.86-46.5,46.5-46.5,46.5,20.86,46.5,46.5-20.86,46.5-46.5,46.5Z"/>
        <path class="cls-3" d="M265.5,49c22.88,0,41.5,18.62,41.5,41.5s-18.62,41.5-41.5,41.5-41.5-18.62-41.5-41.5,18.62-41.5,41.5-41.5M265.5,39h0c-28.44,0-51.5,23.06-51.5,51.5h0c0,28.44,23.06,51.5,51.5,51.5h0c28.44,0,51.5-23.06,51.5-51.5h0c0-28.44-23.06-51.5-51.5-51.5h0Z"/>
      </g>
      <g>
        <path class="cls-3" d="M540.5,171c-25.64,0-46.5-20.86-46.5-46.5s20.86-46.5,46.5-46.5,46.5,20.86,46.5,46.5-20.86,46.5-46.5,46.5Z"/>
        <path class="cls-3" d="M540.5,83c22.88,0,41.5,18.62,41.5,41.5s-18.62,41.5-41.5,41.5-41.5-18.62-41.5-41.5,18.62-41.5,41.5-41.5M540.5,73h0c-28.44,0-51.5,23.06-51.5,51.5h0c0,28.44,23.06,51.5,51.5,51.5h0c28.44,0,51.5-23.06,51.5-51.5h0c0-28.44-23.06-51.5-51.5-51.5h0Z"/>
      </g>
      <g>
       
        <path class="cls-3" d="M381.5,273c22.88,0,41.5,18.62,41.5,41.5s-18.62,41.5-41.5,41.5-41.5-18.62-41.5-41.5,18.62-41.5,41.5-41.5M381.5,263h0c-28.44,0-51.5,23.06-51.5,51.5h0c0,28.44,23.06,51.5,51.5,51.5h0c28.44,0,51.5-23.06,51.5-51.5h0c0-28.44-23.06-51.5-51.5-51.5h0Z"/>
      </g>
      <line class="cls-4" x1="106.14" y1="167.33" x2="159.14" y2="253.33"/>
      <line class="cls-4" x1="129" y1="111" x2="215" y2="101"/>
      <line class="cls-4" x1="214" y1="243" x2="244" y2="137"/>
      <line class="cls-4" x1="244" y1="290" x2="336" y2="305"/>
      <line class="cls-4" x1="304" y1="124" x2="345" y2="158"/>
      <line class="cls-4" x1="433" y1="162" x2="493" y2="141"/>
      <line class="cls-4" x1="381" y1="263" x2="387" y2="238"/>
    </g>
  </g>
</svg>